<?xml version="1.0" standalone="no"?>
<!DOCTYPE svg PUBLIC "-//W3C//DTD SVG 20010904//EN"
 "http://www.w3.org/TR/2001/REC-SVG-20010904/DTD/svg10.dtd">
<svg version="1.0" xmlns="http://www.w3.org/2000/svg"
 width="500.000000pt" height="500.000000pt" viewBox="0 0 500.000000 500.000000"
 preserveAspectRatio="xMidYMid meet">
<metadata>
Created by potrace 1.16, written by Peter Selinger 2001-2019
</metadata>
<g transform="translate(0.000000,500.000000) scale(0.100000,-0.100000)"
fill="#000000" stroke="none">
<path d="M3250 3793 c-28 -11 -80 -55 -80 -68 0 -13 22 -28 165 -114 39 -23
77 -46 85 -51 80 -49 256 -153 297 -176 29 -16 53 -32 53 -35 0 -3 -17 -19
-37 -35 -20 -16 -125 -100 -232 -186 -140 -112 -203 -158 -222 -158 -48 0
-193 58 -214 86 -88 115 -216 262 -244 281 -37 25 -49 24 -118 -9 l-41 -21
-71 64 c-329 296 -804 328 -1163 80 -184 -127 -315 -309 -378 -527 -12 -40
-29 -78 -38 -86 -9 -8 -63 -60 -118 -115 -233 -232 -367 -464 -351 -606 16
-129 119 -208 297 -225 79 -8 285 8 380 28 146 32 129 33 200 -14 90 -60 149
-88 265 -127 97 -32 106 -33 265 -33 198 -1 277 16 435 94 278 137 477 423
509 732 l7 66 72 38 c162 84 196 105 190 120 -9 25 -54 15 -120 -26 -67 -43
-131 -80 -137 -80 -2 0 -7 28 -11 63 -3 34 -11 88 -16 121 -14 82 -10 88 45
68 42 -16 47 -16 75 1 16 9 39 17 51 17 31 0 179 -80 196 -105 12 -19 37 -107
48 -170 14 -75 18 -85 37 -85 30 0 40 43 38 163 -1 82 2 112 12 123 8 7 107
76 219 153 113 76 217 148 232 160 14 12 29 21 32 21 8 0 38 -108 111 -399 36
-146 68 -268 71 -273 9 -14 25 -9 66 24 l40 31 -4 94 -3 93 30 24 c25 20 28
28 19 43 -6 9 -22 20 -35 23 -22 5 -24 12 -27 67 -3 57 -1 63 23 79 39 26 29
84 -15 84 -14 0 -18 16 -23 98 -4 53 -7 117 -7 142 l0 45 91 60 c146 97 225
188 217 253 -3 26 -5 27 -68 26 -84 -1 -138 -28 -261 -130 l-91 -76 -92 35
c-50 19 -108 41 -129 48 -29 10 -37 18 -34 31 3 10 -2 27 -11 38 -17 20 -17
20 -52 2 -34 -19 -36 -19 -92 0 -53 18 -58 22 -58 49 0 41 -28 53 -68 29 l-32
-20 -81 30 c-44 17 -81 30 -82 29 -1 0 -9 -3 -17 -6z m-1046 -283 c39 -12 100
-36 136 -52 l64 -31 -46 -41 c-25 -23 -66 -53 -92 -66 -44 -24 -48 -24 -57 -7
-23 41 -114 140 -162 178 -29 23 -53 44 -55 48 -4 13 139 -8 212 -29z m-323
-2 c19 -6 52 -24 75 -39 78 -53 200 -191 188 -211 -7 -11 -30 -21 -139 -58
-135 -46 -133 -46 -141 -3 -3 21 -20 92 -36 158 -16 66 -32 130 -35 143 -5 19
-1 22 24 22 17 0 45 -5 64 -12z m-128 -159 c50 -192 53 -208 36 -214 -16 -5
-273 -34 -277 -30 -4 3 17 101 35 165 8 30 29 81 46 113 30 58 92 120 112 114
5 -2 27 -68 48 -148z m-238 54 c-43 -103 -75 -220 -75 -274 0 -25 -4 -29 -29
-29 -34 0 -184 20 -189 25 -8 7 88 132 140 183 55 54 133 112 151 112 5 0 6
-8 2 -17z m1011 -69 c56 -47 68 -74 35 -74 -11 0 -32 -13 -48 -30 -19 -20 -38
-30 -58 -30 -16 0 -52 -12 -80 -25 -27 -14 -56 -25 -62 -25 -11 0 -59 79 -51
84 2 2 35 23 73 48 39 25 81 57 94 72 14 14 29 26 34 26 5 0 34 -21 63 -46z
m289 -71 c11 -15 64 -80 118 -145 54 -65 96 -122 92 -128 -3 -5 -22 -12 -41
-16 -28 -5 -40 -2 -59 16 -24 23 -26 23 -67 7 -54 -22 -61 -14 -10 12 37 19
82 67 82 88 0 4 -15 23 -32 42 -26 30 -32 32 -40 18 -5 -10 -22 -17 -40 -17
-25 0 -29 -3 -25 -19 3 -12 -6 -28 -24 -46 -25 -23 -29 -34 -29 -85 0 -68 15
-88 48 -64 20 14 22 14 22 -4 0 -10 -11 -24 -25 -30 -48 -22 -53 -17 -59 61
-5 64 -19 276 -21 302 0 12 44 35 70 35 11 0 29 -12 40 -27z m-192 -173 c-8
-96 -7 -109 13 -155 38 -87 38 -90 1 -103 -50 -18 -54 -16 -72 38 -16 49 -16
49 10 84 27 36 45 106 27 106 -6 0 -24 -13 -40 -30 -17 -16 -35 -30 -41 -30
-6 0 -11 -8 -11 -17 0 -14 -8 -9 -34 17 -18 19 -54 52 -80 74 -25 21 -46 42
-46 46 0 4 17 15 37 23 28 11 42 12 55 3 25 -15 23 -22 -12 -35 -36 -12 -38
-24 -8 -45 20 -15 24 -14 45 6 20 19 27 20 43 10 22 -14 33 -16 26 -4 -7 12
16 38 52 56 38 20 33 40 -9 34 -24 -4 -29 -1 -29 17 0 16 10 26 38 37 35 13
37 13 40 -6 1 -12 -1 -68 -5 -126z m-413 81 c15 -29 12 -51 -7 -51 -27 0 -141
-58 -152 -78 -5 -10 -7 -37 -4 -60 6 -41 5 -41 -25 -39 -16 1 -28 5 -26 9 2 3
-14 14 -35 24 -32 14 -42 25 -54 61 -10 31 -11 45 -3 52 6 4 54 23 106 40 52
18 109 38 125 46 42 19 63 18 75 -4z m88 -101 c22 0 82 -68 102 -115 32 -74
34 -124 8 -175 -20 -39 -31 -48 -98 -77 -41 -17 -78 -29 -82 -25 -8 8 -138
323 -138 334 0 17 146 69 175 63 11 -3 26 -5 33 -5z m-464 -48 c7 -34 6 -46
-8 -60 -9 -10 -16 -35 -16 -54 0 -51 -21 -65 -58 -38 -61 45 -152 45 -209 0
l-28 -22 -7 69 c-8 90 -5 101 40 108 20 3 80 14 132 24 136 26 143 25 154 -27z
m-582 24 c35 -8 87 -17 117 -19 29 -3 54 -7 56 -9 1 -2 6 -66 10 -143 l7 -140
-24 23 c-27 25 -71 29 -115 10 -38 -16 -73 -48 -73 -67 0 -13 -13 -16 -70 -17
l-71 -1 7 76 c9 103 67 301 89 301 2 0 32 -6 67 -14z m729 -138 c76 -90 199
-245 199 -251 0 -3 -16 -11 -35 -17 -19 -6 -35 -16 -35 -21 0 -12 45 -12 68 0
22 11 178 61 191 61 8 0 35 -72 28 -75 -1 0 -15 -5 -32 -11 -16 -5 -36 -21
-44 -35 -27 -49 20 -112 77 -101 6 2 12 -5 12 -15 0 -13 -34 -33 -133 -77
-126 -56 -185 -72 -187 -52 0 6 7 11 17 12 10 2 19 8 21 13 2 6 12 11 22 11
22 0 39 22 22 28 -7 2 -12 10 -12 18 0 10 -8 14 -22 12 -18 -2 -24 3 -28 27
-5 25 -10 30 -33 28 -29 -2 -30 -1 -46 89 -9 51 -3 58 45 58 31 0 30 12 -1 46
-22 24 -23 28 -10 47 20 29 18 57 -6 86 -18 22 -22 23 -44 11 -14 -7 -25 -17
-25 -22 0 -5 -8 -2 -17 8 -17 17 -18 16 -21 -18 -2 -23 -13 -45 -33 -64 -24
-23 -29 -36 -29 -75 0 -54 10 -65 41 -49 27 15 37 5 21 -21 -10 -16 -10 -24
-2 -34 10 -12 60 -184 60 -207 0 -4 -13 -8 -28 -8 -25 0 -31 6 -42 41 -15 44
-27 56 -41 42 -6 -6 -3 -24 7 -49 9 -21 20 -49 25 -62 8 -22 10 -22 45 -7 44
18 44 18 44 1 0 -8 -20 -19 -47 -27 -27 -7 -93 -30 -148 -51 -114 -45 -106
-48 -156 57 -43 90 -46 115 -16 143 14 13 44 28 66 33 23 5 61 22 84 37 23 15
55 32 70 39 19 8 26 17 21 25 -5 7 -15 97 -24 201 l-16 189 36 18 c19 11 38
19 41 20 3 0 25 -24 50 -52z m-255 -92 c33 -33 43 -56 25 -56 -5 0 -7 -9 -4
-20 3 -12 2 -20 -3 -19 -32 6 -33 -4 -1 -16 45 -15 61 -35 77 -90 13 -48 4
-79 -34 -115 -21 -19 -40 -25 -89 -28 -67 -4 -90 7 -117 57 -11 22 -10 27 10
43 12 10 27 18 34 18 6 0 3 -5 -6 -11 -25 -14 -22 -45 4 -63 35 -25 53 -19 94
31 81 98 87 114 50 138 -20 13 -27 13 -49 2 -15 -8 -24 -17 -20 -20 3 -4 -2
-16 -12 -27 -25 -27 -93 -27 -128 1 -37 28 -54 88 -37 129 21 50 68 76 139 79
25 1 41 -7 67 -33z m1096 -17 c3 -24 7 -69 7 -99 l1 -56 -112 -61 c-224 -122
-238 -126 -238 -79 0 19 4 22 25 18 28 -5 53 12 65 43 10 27 -34 117 -54 109
-15 -6 -11 -28 14 -74 12 -22 3 -50 -16 -50 -23 0 -47 62 -52 136 l-4 71 32
12 c18 6 62 11 97 11 49 0 74 6 106 23 50 28 98 46 112 43 6 -2 13 -23 17 -47z
m-1810 -156 c-6 -9 -33 -22 -62 -30 -54 -14 -106 -47 -112 -73 -5 -20 61 -218
101 -302 36 -75 57 -88 112 -69 18 6 49 11 70 11 34 0 41 -5 89 -70 29 -39 50
-73 48 -76 -3 -2 -38 -12 -79 -21 -52 -12 -124 -17 -244 -17 -160 -1 -173 0
-218 23 -62 30 -87 70 -87 136 0 61 18 122 60 206 28 54 127 211 160 252 5 7
44 55 87 107 l78 95 3 -78 c2 -42 -1 -85 -6 -94z m397 41 c19 -25 34 -52 34
-59 0 -8 4 -12 8 -9 7 4 159 -177 159 -190 0 -3 -18 -11 -41 -17 -34 -11 -42
-10 -50 2 -26 42 -24 42 -73 20 -51 -22 -54 -11 -3 15 62 33 83 80 50 116 -21
23 -32 23 -54 -3 -15 -17 -22 -19 -33 -10 -16 13 -20 9 -30 -33 -4 -17 -19
-41 -33 -53 -18 -17 -23 -30 -19 -46 3 -12 6 -33 6 -46 0 -21 3 -23 30 -17 21
4 30 2 30 -8 0 -13 -65 -38 -74 -28 -3 3 -6 33 -6 66 0 34 -7 115 -15 181 -8
65 -12 121 -10 124 15 14 62 40 75 40 8 0 30 -20 49 -45z m-183 -209 c35 -88
64 -165 64 -172 0 -6 -14 -16 -31 -22 -40 -14 -36 -15 -55 14 -15 23 -15 26 5
51 24 30 26 52 9 89 l-11 25 -24 -22 c-13 -12 -23 -30 -23 -39 0 -11 -5 -16
-13 -13 -18 6 -73 -57 -69 -78 2 -13 -1 -16 -11 -12 -9 3 -26 -2 -39 -10 -14
-9 -27 -13 -31 -10 -3 4 -1 -8 6 -25 10 -28 16 -32 39 -27 20 4 28 1 28 -8 0
-13 -48 -29 -62 -20 -3 2 -12 21 -18 42 -6 20 -25 66 -42 102 -33 69 -78 180
-78 190 0 3 23 14 50 24 40 15 53 16 65 6 24 -20 18 -36 -21 -59 -33 -20 -36
-25 -30 -54 4 -17 10 -35 15 -40 10 -10 71 20 84 41 7 10 14 7 32 -14 l24 -27
-6 42 c-6 44 5 60 55 81 14 6 22 18 22 35 0 29 -21 32 -60 10 -35 -20 -40 -19
-40 9 0 17 10 28 33 40 59 30 64 25 133 -149z m1591 66 c-6 -55 -51 -194 -72
-227 -13 -20 -16 -21 -64 -8 -28 7 -82 16 -121 20 l-70 7 0 46 0 46 162 83
c89 45 164 82 167 82 2 0 1 -22 -2 -49z m-1303 -171 c46 -17 61 -54 58 -147
-3 -86 4 -100 31 -60 12 18 18 20 28 9 25 -24 -5 -44 -106 -73 -164 -46 -175
-46 -210 -7 -41 45 -75 94 -75 107 0 7 20 20 44 30 24 11 55 30 68 43 14 12
38 31 52 41 15 11 31 30 36 43 10 26 32 30 74 14z m886 -148 c0 -50 -38 -181
-71 -243 -30 -55 -97 -129 -118 -129 -5 0 -11 10 -13 23 -3 12 -22 91 -42 176
-28 114 -34 156 -26 161 7 4 47 13 89 20 42 6 83 13 91 15 8 1 32 3 53 4 34 1
37 -1 37 -27z m240 17 c27 -6 50 -15 50 -21 0 -16 -55 -90 -107 -143 -54 -55
-173 -148 -180 -141 -3 3 7 34 21 69 14 36 33 106 43 156 l17 91 53 0 c28 0
75 -5 103 -11z m-559 -201 c58 -229 56 -208 17 -208 -57 0 -137 48 -224 135
-45 44 -86 90 -93 102 -10 20 -8 23 21 36 18 8 65 28 103 45 75 33 102 41 125
38 10 -1 25 -46 51 -148z m-322 -63 c34 -41 87 -94 117 -117 30 -24 49 -45 43
-47 -19 -6 -160 19 -228 40 -85 27 -163 67 -159 82 5 15 139 117 154 117 6 0
39 -34 73 -75z"/>
<path d="M2325 2980 c-14 -16 -26 -19 -52 -14 -53 10 -63 2 -51 -41 11 -32 9
-38 -15 -63 -25 -26 -26 -31 -16 -63 22 -64 34 -68 79 -23 23 21 48 52 57 68
8 16 24 38 34 49 22 24 24 64 5 90 -17 22 -19 21 -41 -3z"/>
</g>
</svg>
